<svg width="48" height="48" viewBox="0 0 48 48" fill="none" xmlns="http://www.w3.org/2000/svg">
<path d="M23.872 0C10.6947 0 0 10.6947 0 23.872C0 37.0494 10.6947 47.744 23.872 47.744C37.0494 47.744 47.744 37.0494 47.744 23.872C47.744 10.6947 37.0494 0 23.872 0ZM34.9486 16.233C34.5905 20.0047 33.0389 29.1716 32.2511 33.3969C31.9169 35.1873 31.2485 35.7841 30.6278 35.8558C29.2432 35.9751 28.1928 34.9486 26.856 34.0654C24.7553 32.6808 23.5617 31.8214 21.5326 30.4846C19.1692 28.9329 20.697 28.0735 22.0577 26.6889C22.4158 26.3308 28.527 20.7686 28.6464 20.2673C28.663 20.1914 28.6608 20.1126 28.64 20.0377C28.6192 19.9628 28.5804 19.8941 28.527 19.8376C28.3838 19.7183 28.1928 19.766 28.0257 19.7899C27.8109 19.8376 24.4688 22.0577 17.9517 26.4502C16.9969 27.0947 16.1375 27.4289 15.3736 27.4051C14.5142 27.3812 12.8909 26.9276 11.6734 26.5218C10.1695 26.0444 8.99975 25.7818 9.09523 24.9462C9.14298 24.5165 9.73978 24.0869 10.8618 23.6333C17.8324 20.6015 22.4636 18.5963 24.7791 17.6414C31.4156 14.8723 32.7763 14.3948 33.6834 14.3948C33.8744 14.3948 34.3279 14.4426 34.6144 14.6813C34.8531 14.8723 34.9247 15.1349 34.9486 15.3258C34.9247 15.4691 34.9725 15.8988 34.9486 16.233Z" fill="#151313"/>
</svg>
