<svg width="49" height="49" viewBox="0 0 49 49" fill="none" xmlns="http://www.w3.org/2000/svg">
<path d="M3.36174 3.36174C6.36112e-07 6.7555 0 12.1823 0 23.0519V24.9729C0 35.8265 6.36112e-07 41.2534 3.36174 44.6631C6.7555 48.0249 12.1823 48.0249 23.0519 48.0249H24.9729C35.8265 48.0249 41.2534 48.0249 44.6631 44.6631C48.0249 41.2694 48.0249 35.8426 48.0249 24.9729V23.0519C48.0249 12.1983 48.0249 6.77151 44.6631 3.36174C41.2694 6.36112e-07 35.8426 0 24.9729 0H23.0519C12.1983 0 6.77151 6.36112e-07 3.36174 3.36174ZM8.10019 14.6156H13.607C13.7831 23.7723 17.8172 27.6463 21.0189 28.4467V14.6156H26.1896V22.5077C29.3432 22.1715 32.6729 18.5696 33.7935 14.5996H38.9482C38.5276 16.6545 37.6879 18.6007 36.4815 20.3167C35.2751 22.0326 33.7279 23.4815 31.9365 24.5727C33.9361 25.5676 35.7019 26.9751 37.1175 28.7025C38.5331 30.4299 39.5662 32.4379 40.1488 34.5939H34.4658C33.2492 30.7999 30.2076 27.8544 26.1896 27.4542V34.5939H25.5492C14.5996 34.5939 8.35633 27.102 8.10019 14.6156Z" fill="#151313"/>
</svg>
